<?xml version="1.0" encoding="UTF-8" standalone="no"?>
<!-- Created with Inkscape (http://www.inkscape.org/) -->

<svg
   width="89.76857mm"
   height="135.28552mm"
   viewBox="0 0 89.76857 135.28552"
   version="1.1"
   id="svg5"
   xml:space="preserve"
   inkscape:export-filename="palta-logo.svg"
   inkscape:export-xdpi="96"
   inkscape:export-ydpi="96"
   xmlns:inkscape="http://www.inkscape.org/namespaces/inkscape"
   xmlns:sodipodi="http://sodipodi.sourceforge.net/DTD/sodipodi-0.dtd"
   xmlns="http://www.w3.org/2000/svg"
   xmlns:svg="http://www.w3.org/2000/svg"><sodipodi:namedview
     id="namedview7"
     pagecolor="#ffffff"
     bordercolor="#000000"
     borderopacity="0.25"
     inkscape:showpageshadow="2"
     inkscape:pageopacity="0.0"
     inkscape:pagecheckerboard="0"
     inkscape:deskcolor="#d1d1d1"
     inkscape:document-units="mm"
     showgrid="false" /><defs
     id="defs2" /><g
     inkscape:label="Calque 1"
     inkscape:groupmode="layer"
     id="layer1"
     transform="translate(-62.69507,-57.565184)"><path
       style="fill:#000000;stroke-width:0.264583"
       d="m 104.27206,192.79575 c -2.73045,-0.27464 -5.475167,-0.71708 -7.408329,-1.19418 -16.113551,-3.97688 -28.964191,-16.82881 -32.908415,-32.91172 -3.122109,-12.73067 -0.426929,-27.9329 7.903926,-44.58229 2.193998,-4.38476 5.499904,-11.74703 6.831382,-15.213545 0.447154,-1.16417 1.432621,-3.72401 2.189927,-5.68854 5.591244,-14.50428 13.960715,-23.6502 23.589949,-25.77843 l 0.72761,-0.16082 5.3e-4,-3.76527 c 2.6e-4,-3.05687 0.0874,-3.93839 0.46302,-4.68545 0.54554,-1.08513 1.65587,-1.51679 2.79051,-1.08484 1.21038,0.46082 1.50844,1.61231 1.50844,5.82794 v 3.70762 l 0.7276,0.16082 c 9.62924,2.12823 17.99871,11.27415 23.58995,25.77843 0.75731,1.96453 1.74278,4.52437 2.18993,5.68854 1.33148,3.466515 4.63738,10.828785 6.83138,15.213545 8.33086,16.64939 11.02604,31.85162 7.90393,44.58229 -2.80648,11.44368 -10.04337,21.27822 -20.37167,27.68403 -4.77667,2.96259 -10.84462,5.17143 -16.56798,6.03103 -2.10376,0.31597 -8.31898,0.55909 -9.99169,0.39084 z m 6.35001,-4.59146 c 11.80836,-0.98416 22.17114,-6.69195 29.23832,-16.10436 7.92122,-10.54985 9.95116,-23.03103 6.18098,-38.00403 -1.66266,-6.60312 -3.21475,-10.58967 -7.88514,-20.25292 -3.17574,-6.57077 -4.39018,-9.40896 -8.09477,-18.917715 -3.9073,-10.02907 -9.27314,-17.43769 -15.23237,-21.03134 -4.71551,-2.84364 -9.78395,-2.84364 -14.49947,0 -5.764769,3.47638 -11.284554,10.96341 -14.920085,20.23759 -0.456361,1.16417 -1.742199,4.43839 -2.857421,7.276045 -1.115218,2.83766 -3.61135,8.43359 -5.546957,12.43542 -3.683844,7.61625 -5.075288,10.88853 -6.418098,15.09354 -4.019542,12.58717 -4.391255,22.51099 -1.1987,32.00229 5.030173,14.95445 18.939625,25.8982 34.619121,27.23781 3.43391,0.29338 3.42689,0.29335 6.61459,0.0277 z m -6.87917,-16.52728 c -12.488751,-2.44823 -20.124674,-13.63663 -18.001419,-26.37625 1.474809,-8.84892 6.846014,-18.72083 12.482457,-22.94192 3.308672,-2.47784 6.007592,-3.4825 9.355422,-3.4825 3.34782,0 6.04674,1.00466 9.35542,3.4825 5.63644,4.22109 11.00764,14.093 12.48245,22.94192 1.52601,9.15611 -1.96999,17.77958 -9.22431,22.75331 -1.75986,1.2066 -5.25761,2.7909 -7.3219,3.31644 -2.38512,0.60721 -6.8324,0.75655 -9.12812,0.3065 z m 8.20208,-4.80802 c 6.34643,-1.51644 11.57589,-7.03565 12.94106,-13.65809 0.5312,-2.57684 0.52986,-4.2385 -0.006,-7.37286 -1.55413,-9.09163 -7.40542,-18.57895 -13.22571,-21.44428 -1.63227,-0.80355 -2.04245,-0.89349 -4.07504,-0.89349 -2.03259,0 -2.44278,0.0899 -4.07504,0.89349 -5.820297,2.86533 -11.671586,12.35265 -13.225716,21.44428 -0.535792,3.13436 -0.537128,4.79602 -0.0059,7.37286 2.056204,9.97461 11.686976,16.04402 21.672316,13.65809 z"
       id="path313" /></g></svg>
